<?xml version="1.0" encoding="UTF-8" standalone="no"?>
<!DOCTYPE svg PUBLIC "-//W3C//DTD SVG 1.1//EN" "http://www.w3.org/Graphics/SVG/1.1/DTD/svg11.dtd">
<svg xmlns="http://www.w3.org/2000/svg" xmlns:xlink="http://www.w3.org/1999/xlink" version="1.1" width="750.69pt" height="433.90339pt" >
<!-- viewBox="390 -290 1720.69 1213.90339"-->
<g enable-background="new">


<animateTransform attributeName="transform"
                          attributeType="XML"
                          type="rotate"
                          from="0 210 240"
                          to="360 210 240"
                          dur="30s"
                          repeatCount="indefinite"/>
                          
<path transform="matrix(1,0,0,-1,640.6026,1198.3015)" stroke-width="1" stroke-linecap="butt" stroke-miterlimit="10" stroke-linejoin="miter" fill="none" stroke="#000000" d="M 1033.175 1115.891 L 843.5185 1231.713 L 641.47 1242.955 L 635.9653 1141.497 M 937.5748 1175.131 L 715.4167 1180.607 L 534.8163 1089.319 L 580.7783 998.701 M 825.163 1178.634 L 630.0302 1072.297 L 519.2696 902.9393 L 604.3829 847.4428 M 726.0599 1125.461 L 610.2382 935.8049 L 598.9956 733.7564 L 700.4541 728.2516 M 666.8203 1029.861 L 661.3439 807.7031 L 752.6318 627.1027 L 843.2498 673.0647 M 663.3173 917.4493 L 769.6537 722.3166 L 939.0115 611.556 L 994.508 696.6692 M 716.4895 818.3463 L 906.1459 702.5246 L 1108.194 691.282 L 1113.699 792.7405 M 812.0896 759.1067 L 1034.248 753.6303 L 1214.848 844.9181 L 1168.886 935.5362 M 924.5015 755.6037 L 1119.634 861.94 L 1230.395 1031.298 L 1145.282 1086.794 M 1023.605 808.7759 L 1139.426 998.4323 L 1150.669 1200.481 L 1049.21 1205.986 M 1082.844 904.376 L 1088.321 1126.534 L 997.0327 1307.134 L 906.4146 1261.172 M 1086.347 1016.788 L 980.0108 1211.921 L 810.653 1322.681 L 755.1564 1237.568 M 1033.175 1115.891 L 843.5185 1231.713 L 641.47 1242.955 L 635.9653 1141.497 "/>
<path transform="matrix(1,0,0,-1,-640.6026,1198.3015)" stroke-width="1" stroke-linecap="butt" stroke-miterlimit="10" stroke-linejoin="miter" fill="none" stroke="#000000" d="M 957.1682 1286.915 L 767.8451 1401.116 L 674.4751 1287.64 M 786.2391 1285.238 L 565.1797 1289.478 L 541.0569 1144.52 M 639.0484 1198.322 L 445.4855 1091.464 L 497.0736 953.8651 M 555.0358 1049.455 L 440.8344 860.1315 L 554.3104 766.7614 M 556.7124 878.5254 L 552.4726 657.4661 L 697.4308 633.3433 M 643.629 731.3348 L 750.4869 537.7719 L 888.0857 589.36 M 792.4962 647.3222 L 981.8193 533.1208 L 1075.189 646.5968 M 963.4254 648.9988 L 1184.485 644.759 L 1208.607 789.7172 M 1110.616 735.9153 L 1304.179 842.7733 L 1252.591 980.3721 M 1194.629 884.7826 L 1308.83 1074.106 L 1195.354 1167.476 M 1192.952 1055.712 L 1197.192 1276.771 L 1052.234 1300.894 M 1106.035 1202.902 L 999.1776 1396.465 L 861.5787 1344.877 M 957.1682 1286.915 L 767.8451 1401.116 L 674.4751 1287.64 "/>
<path transform="matrix(1,0,0,-1,-640.6026,1198.3015)" stroke-width="1" stroke-linecap="butt" stroke-miterlimit="10" stroke-linejoin="miter" fill="none" stroke="#000000" d="M 743.4567 1286.059 L 776.2005 1328.816 L 803.6722 1311.975 M 601.5875 1177.641 L 608.566 1231.042 L 640.7776 1230.193 M 532.934 1012.814 L 512.2773 1062.55 L 540.5978 1077.92 M 555.8919 835.7431 L 513.1349 868.4869 L 529.9758 895.9586 M 664.3096 693.8739 L 610.909 700.8524 L 611.7578 733.064 M 829.1366 625.2204 L 779.4011 604.5637 L 764.0304 632.8842 M 1006.208 648.1783 L 973.4639 605.4213 L 945.9923 622.2622 M 1148.077 756.5959 L 1141.098 703.1954 L 1108.887 704.0442 M 1216.73 921.423 L 1237.387 871.6875 L 1209.067 856.3168 M 1193.773 1098.494 L 1236.529 1065.75 L 1219.689 1038.279 M 1085.355 1240.363 L 1138.755 1233.385 L 1137.907 1201.173 M 920.5278 1309.017 L 970.2633 1329.673 L 985.634 1301.353 M 743.4567 1286.059 L 776.2005 1328.816 L 803.6722 1311.975 "/>
<path transform="matrix(1,0,0,-1,-640.6026,1198.3015)" stroke-width="1" stroke-linecap="butt" stroke-miterlimit="10" stroke-linejoin="miter" fill="none" stroke="#000000" d="M 635.236 1230.339 L 603.0151 1188.565 M 535.7256 1075.276 L 528.7084 1022.988 M 527.0785 891.2324 L 547.1453 842.4413 M 611.6118 727.5223 L 653.3857 695.3014 M 766.6748 628.012 L 818.9625 620.9948 M 950.7184 619.3649 L 999.5095 639.4317 M 1114.428 703.8982 L 1146.649 745.672 M 1213.939 858.9612 L 1220.956 911.2488 M 1222.586 1043.005 L 1202.519 1091.796 M 1138.053 1206.715 L 1096.279 1238.936 M 982.9897 1306.225 L 930.702 1313.242 M 798.946 1314.872 L 750.1549 1294.806 M 635.236 1230.339 L 603.0151 1188.565 "/>
<path transform="matrix(1,0,0,-1,-640.6026,1198.3015)" stroke-width="1" stroke-linecap="butt" stroke-miterlimit="10" stroke-linejoin="miter" fill="none" stroke="#000000" d="M 891.8016 1202.226 L 727.6351 1200.193 L 684.6613 1165.061 M 771.9742 1179.213 L 630.8185 1095.368 L 611.1682 1043.456 M 679.7075 1099.368 L 599.3853 956.1793 L 608.3236 901.3969 M 639.7243 984.088 L 641.7578 819.9214 L 676.8898 776.9477 M 662.7381 864.2606 L 746.5825 723.1049 L 798.4945 703.4545 M 742.5823 771.9939 L 885.7715 691.6717 L 940.5539 700.61 M 857.8628 732.0107 L 1022.029 734.0442 L 1065.003 769.1762 M 977.6902 755.0245 L 1118.846 838.8688 L 1138.496 890.7809 M 1069.957 834.8687 L 1150.279 978.0579 L 1141.341 1032.84 M 1109.94 950.1492 L 1107.907 1114.316 L 1072.775 1157.29 M 1086.926 1069.977 L 1003.082 1211.132 L 951.1699 1230.783 M 1007.082 1162.243 L 863.8929 1242.566 L 809.1106 1233.627 M 891.8016 1202.226 L 727.6351 1200.193 L 684.6613 1165.061 "/>

<path transform="matrix(1,0,0,-1,-640.6026,1198.3015)" stroke-width="1" stroke-linecap="butt" stroke-miterlimit="10" stroke-linejoin="miter" fill="none" stroke="#000000" d="M 717.6922 1180.551 L 739.3589 1200.338 M 632.0288 1073.386 L 640.8991 1101.356 M 611.4245 937.7474 L 605.1215 966.4051 M 661.4 809.9785 L 641.6126 831.6453 M 768.5645 724.3152 L 740.5948 733.1855 M 904.2034 703.7108 L 875.5457 697.4078 M 1031.972 753.6864 L 1010.306 733.899 M 1117.636 860.8509 L 1108.765 832.8811 M 1138.24 996.4898 L 1144.543 967.8321 M 1088.264 1124.259 L 1108.052 1102.592 M 981.0999 1209.922 L 1009.07 1201.052 M 845.461 1230.526 L 874.1187 1236.829 M 717.6922 1180.551 L 739.3589 1200.338 "/>
<path transform="matrix(1,0,0,-1,-640.6026,1198.3015)" stroke-width="4" stroke-linecap="butt" stroke-miterlimit="10" stroke-linejoin="miter" fill="none" stroke="#000000" d="M 1071.851 1402.016 L 919.4537 1449.745 L 876.5434 1414.234 L 829.5536 1439.971 M 828.0072 1442.26 L 672.1624 1407.396 L 652.7567 1355.187 L 599.1935 1353.982 M 596.7099 1355.191 L 479.1763 1247.075 L 488.4749 1192.158 L 442.6905 1164.332 M 439.9352 1164.138 L 392.2059 1011.74 L 427.7172 968.8298 L 401.9796 921.84 M 399.6908 920.2936 L 434.5549 764.4488 L 486.7637 745.0431 L 487.9691 691.4799 M 486.7601 688.9963 L 594.8757 571.4627 L 649.7927 580.7613 L 677.6183 534.9769 M 677.8131 532.2215 L 830.2108 484.4923 L 873.121 520.0036 L 920.1108 494.266 M 921.6572 491.9771 L 1077.502 526.8412 L 1096.908 579.05 L 1150.471 580.2555 M 1152.955 579.0465 L 1270.488 687.1621 L 1261.19 742.0791 L 1306.974 769.9047 M 1309.729 770.0995 L 1357.459 922.4971 L 1321.947 965.4074 L 1347.685 1012.397 M 1349.974 1013.944 L 1315.11 1169.788 L 1262.901 1189.194 L 1261.695 1242.757 M 1262.904 1245.241 L 1154.789 1362.775 L 1099.872 1353.476 L 1072.046 1399.26 M 1071.851 1402.016 L 919.4537 1449.745 L 876.5434 1414.234 L 829.5536 1439.971 "/>
<path transform="matrix(1,0,0,-1,-640.6026,1198.3015)" stroke-width="1" stroke-linecap="butt" stroke-miterlimit="10" stroke-linejoin="miter" fill="none" stroke="#000000" d="M 815.5705 1372.328 L 835.1899 1388.334 L 902.1726 1386.904 L 924.3767 1368.421 M 620.9053 1288.409 L 629.8933 1312.081 L 688.6168 1344.334 L 717.0877 1339.429 M 494.2797 1118.401 L 490.2278 1143.395 L 524.9572 1200.689 L 552.0662 1210.677 M 469.6228 907.8569 L 453.6168 927.4763 L 455.0464 994.459 L 473.5296 1016.663 M 553.5414 713.1917 L 529.8701 722.1796 L 497.6169 780.9032 L 502.5217 809.3741 M 723.5497 586.5661 L 698.5557 582.5142 L 641.2619 617.2436 L 631.2741 644.3526 M 934.0939 561.9092 L 914.4745 545.9031 L 847.4919 547.3328 L 825.2877 565.816 M 1128.759 645.8278 L 1119.771 622.1565 L 1061.048 589.9033 L 1032.577 594.8081 M 1255.385 815.836 L 1259.437 790.8421 L 1224.707 733.5483 L 1197.598 723.5605 M 1280.042 1026.38 L 1296.048 1006.761 L 1294.618 939.7782 L 1276.135 917.5741 M 1196.123 1221.045 L 1219.794 1212.058 L 1252.048 1153.334 L 1247.143 1124.863 M 1026.115 1347.671 L 1051.109 1351.723 L 1108.403 1316.994 L 1118.39 1289.885 M 815.5705 1372.328 L 835.1899 1388.334 L 902.1726 1386.904 L 924.3767 1368.421 "/>
<path transform="matrix(1,0,0,-1,-640.6026,1198.3015)" stroke-width="1" stroke-linecap="butt" stroke-miterlimit="10" stroke-linejoin="miter" fill="none" stroke="#000000" d="M 439.4893 1162.714 L 448.7117 1167.992 M 400.0164 918.8378 L 405.3644 928.0197 M 487.7701 687.8983 L 487.8106 698.524 M 679.2367 531.7757 L 673.959 540.9981 M 923.113 492.3028 L 913.9311 497.6508 M 1154.052 580.0564 L 1143.427 580.097 M 1310.175 771.5231 L 1300.953 766.2453 M 1349.648 1015.399 L 1344.3 1006.218 M 1261.894 1246.339 L 1261.854 1235.713 M 1070.428 1402.462 L 1075.705 1393.239 M 826.5515 1441.934 L 835.7333 1436.586 M 595.612 1354.181 L 606.2376 1354.14 M 439.4893 1162.714 L 448.7117 1167.992 "/>
<path transform="matrix(1,0,0,-1,-640.6026,1198.3015)" stroke-width="9" stroke-linecap="butt" stroke-miterlimit="10" stroke-linejoin="miter" fill="none" stroke="#000000" d="M 708.1926 1448.635 L 755.42 1441.295 L 796.7517 1466.943 L 971.486 1467.001 M 489.7597 1300.805 L 534.3301 1318.061 L 557.3005 1360.939 L 708.5958 1448.356 M 374.5066 1063.563 L 404.4774 1100.793 L 402.9316 1149.411 L 490.2486 1300.764 M 393.3154 800.479 L 400.6559 847.7064 L 375.0081 889.0381 L 374.9502 1063.772 M 541.1462 582.046 L 523.8896 626.6165 L 481.0121 649.5868 L 393.5948 800.8822 M 778.3879 466.793 L 741.158 496.7638 L 692.5399 495.218 L 541.1866 582.535 M 1041.472 485.6018 L 994.2444 492.9423 L 952.9127 467.2945 L 778.1785 467.2366 M 1259.905 633.4326 L 1215.334 616.176 L 1192.364 573.2985 L 1041.069 485.8812 M 1375.158 870.6743 L 1345.187 833.4444 L 1346.733 784.8262 L 1259.416 633.473 M 1356.349 1133.758 L 1349.008 1086.531 L 1374.656 1045.199 L 1374.714 870.4648 M 1208.518 1352.191 L 1225.775 1307.621 L 1268.652 1284.65 L 1356.07 1133.355 M 971.2765 1467.444 L 1008.506 1437.473 L 1057.125 1439.019 L 1208.478 1351.702 M 708.1926 1448.635 L 755.42 1441.295 L 796.7517 1466.943 L 971.486 1467.001 "/>
<path transform="matrix(1,0,0,-1,-640.6026,1198.3015)" stroke-width="3" stroke-linecap="butt" stroke-miterlimit="10" stroke-linejoin="miter" fill="none" stroke="#000000" d="M 1030.569 1117.482 L 839.0042 1231.964 M 934.522 1175.206 L 711.3816 1178.567 M 822.4815 1177.172 L 627.5555 1068.513 M 724.4683 1122.855 L 609.987 931.2906 M 666.745 1026.808 L 663.3835 803.668 M 664.7785 914.7679 L 773.4376 719.8419 M 719.0958 816.7547 L 910.6602 702.2734 M 815.1424 759.0314 L 1038.283 755.6699 M 927.1829 757.0649 L 1122.109 865.724 M 1025.196 811.3821 L 1139.677 1002.947 M 1082.919 907.4288 L 1086.281 1130.569 M 1084.886 1019.469 L 976.2268 1214.395 M 1030.569 1117.482 L 839.0042 1231.964 "/>
<path transform="matrix(1,0,0,-1,-640.6026,1198.3015)" stroke-width="3" stroke-linecap="butt" stroke-miterlimit="10" stroke-linejoin="miter" fill="none" stroke="#000000" d="M 1120.212 864.6664 L 1228.752 1032.369 L 1145.809 1086.45 M 1138.563 1001.082 L 1148.71 1200.587 L 1049.84 1205.951 M 1086.248 1128.397 L 995.2834 1306.247 L 906.9766 1261.458 M 977.2844 1212.498 L 809.5817 1321.038 L 755.5006 1238.096 M 840.8686 1230.85 L 641.3638 1240.997 L 635.9994 1142.126 M 713.5534 1178.535 L 535.7035 1087.57 L 580.4933 999.263 M 629.4527 1069.571 L 520.9126 901.8681 L 603.855 847.787 M 611.1012 933.155 L 600.9541 733.6502 L 699.8249 728.2858 M 663.4163 805.8398 L 754.381 627.9899 L 842.6878 672.7796 M 772.38 721.7391 L 940.0827 613.1989 L 994.1638 696.1414 M 908.7958 703.3876 L 1108.301 693.2404 L 1113.665 792.1113 M 1036.111 755.7026 L 1213.961 846.6674 L 1169.171 934.9742 M 1120.212 864.6664 L 1228.752 1032.369 L 1145.809 1086.45 "/>
<path transform="matrix(1,0,0,-1,-640.6026,1198.3015)" stroke-width="5" stroke-linecap="butt" stroke-miterlimit="10" stroke-linejoin="miter" fill="none" stroke="#000000" d="M 786.5541 1285.722 L 564.6728 1291.242 L 541.4931 1147.141 M 639.0796 1198.898 L 444.1646 1092.738 L 496.141 956.3527 M 554.7749 1049.969 L 439.0534 860.5744 L 552.2589 768.4495 M 556.2292 878.8405 L 550.7087 656.9592 L 694.8101 633.7794 M 643.053 731.366 L 749.2127 536.4509 L 885.5981 588.4274 M 791.9818 647.0613 L 981.3764 531.3397 L 1073.501 644.5453 M 963.1103 648.5156 L 1184.992 642.9951 L 1208.171 787.0965 M 1110.585 735.3394 L 1305.5 841.4991 L 1253.523 977.8845 M 1194.89 884.2682 L 1310.611 1073.663 L 1197.405 1165.788 M 1193.435 1055.397 L 1198.956 1277.278 L 1054.854 1300.458 M 1106.611 1202.871 L 1000.452 1397.786 L 864.0663 1345.81 M 957.6826 1287.176 L 768.288 1402.897 L 676.1631 1289.692 M 786.5541 1285.722 L 564.6728 1291.242 L 541.4931 1147.141 "/>
<path transform="matrix(1,0,0,-1,-640.6026,1198.3015)" stroke-width="14" stroke-linecap="square" stroke-linejoin="round" fill="none" stroke="#333333" d="M 842.5609 1117.659 L 810.9389 1115.539 L 808.9859 1146.199 L 854.0557 1151.006 L 883.1471 1124.241 L 885.8456 1156.544 M 771.614 1081.355 L 745.2887 1063.708 L 728.2675 1089.283 L 764.8955 1115.982 L 803.4719 1107.348 L 789.6572 1136.673 M 728.3244 1014.441 L 714.3495 985.9957 L 686.821 999.6341 L 705.1927 1041.069 L 742.9175 1052.881 L 716.2913 1071.369 M 724.2915 934.8473 L 726.4115 903.2253 L 695.7519 901.2722 L 690.9446 946.3421 L 717.7096 975.4335 L 685.4063 978.132 M 760.5958 863.9004 L 778.2428 837.575 L 752.6673 820.5538 L 725.9692 857.1818 L 734.6026 895.7582 L 705.2779 881.9435 M 827.5096 820.6108 L 855.9551 806.6359 L 842.3167 779.1073 L 800.8814 797.479 L 789.07 835.2039 L 770.5814 808.5777 M 907.1035 816.5778 L 938.7255 818.6979 L 940.6786 788.0383 L 895.6087 783.231 L 866.5173 809.996 L 863.8188 777.6927 M 978.0504 852.8821 L 1004.376 870.5291 L 1021.397 844.9537 L 984.769 818.2555 L 946.1926 826.889 L 960.0073 797.5642 M 1021.34 919.796 L 1035.315 948.2415 L 1062.843 934.6031 L 1044.472 893.1678 L 1006.747 881.3564 L 1033.373 862.8678 M 1025.373 999.3899 L 1023.253 1031.012 L 1053.912 1032.965 L 1058.72 987.8951 L 1031.955 958.8037 L 1064.258 956.1052 M 989.0687 1070.337 L 971.4217 1096.662 L 996.9971 1113.683 L 1023.695 1077.055 L 1015.062 1038.479 L 1044.387 1052.294 M 922.1548 1113.626 L 893.7094 1127.601 L 907.3477 1155.13 L 948.783 1136.758 L 960.5945 1099.033 L 979.0831 1125.66 M 842.5609 1117.659 L 810.9389 1115.539 L 808.9859 1146.199 L 854.0557 1151.006 L 883.1471 1124.241 L 885.8456 1156.544 "/>
<path transform="matrix(1,0,0,-1,-640.6026,1198.3015)" stroke-width="9" stroke-linecap="butt" stroke-miterlimit="10" stroke-linejoin="miter" fill="none" stroke="#333333" d="M 892.9366 1118.529 L 955.6984 1085.691 L 944.9431 1059.224 L 890.0229 1085.814 M 814.8058 1107.296 L 885.5783 1110.238 L 889.4973 1081.94 L 828.6403 1077.507 M 752.759 1058.503 L 812.5789 1096.437 L 830.1221 1073.889 L 779.6347 1039.622 M 723.4217 985.223 L 756.2602 1047.985 L 782.7268 1037.229 L 756.1372 982.3093 M 734.6546 907.0922 L 731.7127 977.8647 L 760.0112 981.7837 L 764.4439 920.9266 M 783.4481 845.0454 L 745.514 904.8653 L 768.0617 922.4085 L 802.3291 871.921 M 856.7278 815.708 L 793.9661 848.5465 L 804.7213 875.0132 L 859.6415 848.4236 M 934.8586 826.941 L 864.0861 823.9991 L 860.1671 852.2975 L 921.0242 856.7303 M 996.9054 875.7345 L 937.0855 837.8004 L 919.5424 860.3481 L 970.0298 894.6155 M 1026.243 949.0142 L 993.4043 886.2524 L 966.9376 897.0077 L 993.5272 951.9279 M 1015.01 1027.145 L 1017.952 956.3725 L 989.6533 952.4535 L 985.2205 1013.311 M 966.2163 1089.192 L 1004.15 1029.372 L 981.6027 1011.829 L 947.3353 1062.316 M 892.9366 1118.529 L 955.6984 1085.691 L 944.9431 1059.224 L 890.0229 1085.814 "/>
<path transform="matrix(1,0,0,-1,-640.6026,1198.3015)" stroke-width="9" stroke-linecap="butt" stroke-miterlimit="10" stroke-linejoin="miter" fill="none" stroke="#333333" d="M 896.7023 1118.898 L 886.0941 1101.274 M 817.8825 1109.499 L 817.5075 1088.932 M 754.3223 1061.948 L 764.2809 1043.95 M 723.0526 988.9887 L 740.6765 978.3805 M 732.4522 910.1689 L 753.019 909.7938 M 780.0023 846.6087 L 798.0013 856.5673 M 852.9621 815.339 L 863.5703 832.9629 M 931.7819 824.7385 L 932.157 845.3054 M 995.3421 872.2887 L 985.3835 890.2877 M 1026.612 945.2485 L 1008.988 955.8567 M 1017.212 1024.068 L 996.6454 1024.443 M 969.6621 1087.629 L 951.6632 1077.67 M 896.7023 1118.898 L 886.0941 1101.274 "/>
<path transform="matrix(1,0,0,-1,-640.6026,1198.3015)" stroke-width="6" stroke-linecap="round" stroke-miterlimit="10" stroke-linejoin="miter" fill="none" stroke="#333333" d="M 941.2596 1053.13 L 891.647 1074.634 L 886.1821 1057.765 L 922.6292 1041.183 M 889.3545 1074.82 L 835.6363 1068.637 L 839.3383 1051.296 L 879.1936 1055.158 M 833.5582 1067.652 L 790.1282 1035.438 L 802.0051 1022.271 L 834.5894 1045.544 M 788.8211 1033.546 L 767.3165 983.9334 L 784.1858 978.4685 L 800.7682 1014.916 M 767.1307 981.6409 L 773.3135 927.9227 L 790.6552 931.6247 L 786.7924 971.48 M 774.2988 925.8445 L 806.5123 882.4146 L 819.6797 894.2915 L 796.4068 926.8758 M 808.4048 881.1075 L 858.0175 859.6028 L 863.4823 876.4722 L 827.0352 893.0546 M 860.3099 859.4171 L 914.0281 865.5998 L 910.3261 882.9416 L 870.4708 879.0788 M 916.1063 866.5852 L 959.5362 898.7987 L 947.6593 911.9661 L 915.075 888.6932 M 960.8433 900.6912 L 982.348 950.3038 L 965.4786 955.7687 L 948.8962 919.3216 M 982.5337 952.5963 L 976.351 1006.314 L 959.0092 1002.612 L 962.872 962.7572 M 975.3656 1008.393 L 943.1521 1051.823 L 929.9847 1039.946 L 953.2576 1007.361 M 941.2596 1053.13 L 891.647 1074.634 L 886.1821 1057.765 L 922.6292 1041.183 "/>
<path transform="matrix(1,0,0,-1,-640.6026,1198.3015)" stroke-width="6" stroke-linecap="round" stroke-miterlimit="10" stroke-linejoin="miter" fill="none" stroke="#333333" d="M 881.7064 1051.759 L 917.8925 1034.706 M 838.4652 1043.856 L 878.3298 1047.181 M 804.9685 1015.392 L 837.8299 1038.204 M 790.1917 973.9928 L 807.2447 1010.179 M 798.0943 930.7516 L 794.7696 970.6162 M 826.5587 897.2549 L 803.7472 930.1163 M 867.958 882.4781 L 831.7719 899.5311 M 911.1992 890.3807 L 871.3346 887.056 M 944.6959 918.8451 L 911.8345 896.0335 M 959.4727 960.2444 L 942.4197 924.0583 M 951.5701 1003.486 L 954.8948 963.621 M 923.1057 1036.982 L 945.9173 1004.121 M 881.7064 1051.759 L 917.8925 1034.706 "/>
<path transform="matrix(1,0,0,-1,-640.6026,1198.3015)" stroke-width="6" stroke-linecap="round" stroke-miterlimit="10" stroke-linejoin="miter" fill="none" stroke="#333333" d="M 896.3513 1042.375 L 892.3466 1032.376 M 855.8401 1043.052 L 857.3712 1032.391 M 820.4179 1023.383 L 827.0744 1014.915 M 799.5759 988.6376 L 809.5743 984.633 M 798.8988 948.1265 L 809.56 949.6576 M 818.568 912.7043 L 827.0354 919.3608 M 853.3132 891.8623 L 857.3178 901.8607 M 893.8243 891.1852 L 892.2932 901.8464 M 929.2465 910.8544 L 922.59 919.3217 M 950.0885 945.5995 L 940.0901 949.6042 M 950.7656 986.1107 L 940.1044 984.5796 M 931.0964 1021.533 L 922.6291 1014.876 M 896.3513 1042.375 L 892.3466 1032.376 "/>
<path transform="matrix(1,0,0,-1,-640.6026,1198.3015)" stroke-width="2.5" stroke-linecap="round" stroke-miterlimit="10" stroke-linejoin="miter" fill="none" stroke="#333333" d="M 890.6712 1028.76 L 885.9913 1018.474 M 857.7286 1028.421 L 858.8187 1017.173 M 829.3688 1011.656 L 835.9368 1002.46 M 813.191 982.9576 L 823.4769 978.2777 M 813.5298 950.0149 L 824.7777 951.105 M 830.2946 921.6552 L 839.4905 928.2232 M 858.9932 905.4774 L 863.6731 915.7633 M 891.9359 905.8162 L 890.8458 917.0641 M 920.2956 922.581 L 913.7276 931.7769 M 936.4734 951.2796 L 926.1875 955.9595 M 936.1346 984.2222 L 924.8868 983.1322 M 919.3698 1012.582 L 910.1739 1006.014 M 890.6712 1028.76 L 885.9913 1018.474 "/>
<path transform="matrix(1,0,0,-1,-640.6026,1198.3015)" stroke-width="3.5" stroke-linecap="round" stroke-miterlimit="10" stroke-linejoin="miter" fill="none" stroke="#333333" d="M 877.4134 1019.273 L 881.6345 1006.118 L 894.5629 1012.208 M 850.9902 1013.577 L 861.2233 1004.295 L 869.3748 1016.032 M 830.9555 995.4313 L 844.4585 992.5095 L 845.6491 1006.75 M 822.6775 969.6998 L 835.8324 973.9209 L 829.7429 986.8492 M 828.3743 943.2766 L 837.6562 953.5097 L 825.9184 961.6612 M 846.5195 923.2418 L 849.4413 936.7449 L 835.2003 937.9354 M 872.251 914.9638 L 868.0299 928.1188 L 855.1016 922.0293 M 898.6742 920.6607 L 888.4411 929.9426 L 880.2896 918.2048 M 918.709 938.8059 L 905.2059 941.7277 L 904.0154 927.4867 M 926.987 964.5374 L 913.832 960.3163 L 919.9215 947.3879 M 921.2901 990.9606 L 912.0082 980.7275 L 923.746 972.576 M 903.145 1010.995 L 900.2231 997.4923 L 914.4641 996.3017 M 877.4134 1019.273 L 881.6345 1006.118 L 894.5629 1012.208 "/>
<path transform="matrix(1,0,0,-1,-640.6026,1198.3015)" stroke-width="3" stroke-linecap="butt" stroke-miterlimit="10" stroke-linejoin="miter" fill="none" stroke="#333333" d="M 873.0398 996.8741 L 880.8882 1001.302 L 884.9921 993.9051 M 858.4022 991.9914 L 862.9853 999.75 L 870.2376 995.3963 M 848.167 980.4441 L 848.2568 989.4547 L 856.7143 989.3105 M 845.0767 965.3262 L 840.6491 973.1745 L 848.0457 977.2784 M 849.9594 950.6886 L 842.2008 955.2717 L 846.5545 962.524 M 861.5067 940.4534 L 852.4961 940.5431 L 852.6403 949.0007 M 876.6246 937.3631 L 868.7763 932.9355 L 864.6724 940.3321 M 891.2622 942.2458 L 886.6792 934.4872 L 879.4268 938.8409 M 901.4974 953.7931 L 901.4077 944.7824 L 892.9501 944.9267 M 904.5877 968.911 L 909.0153 961.0626 L 901.6187 956.9588 M 899.705 983.5486 L 907.4636 978.9655 L 903.1099 971.7132 M 888.1577 993.7838 L 897.1684 993.694 L 897.0241 985.2365 M 873.0398 996.8741 L 880.8882 1001.302 L 884.9921 993.9051 "/>
<path transform="matrix(1,0,0,-1,-640.6026,1198.3015)" stroke-width="2" stroke-linecap="butt" stroke-miterlimit="10" stroke-linejoin="miter" fill="none" stroke="#333333" d="M 882.9168 992.8693 L 875.2765 995.139 L 873.8379 989.2602 L 880.4753 987.0304 L 881.1346 989.9315 L 879.1367 991.422 M 868.9584 993.4617 L 861.2068 991.6071 L 862.9003 985.7966 L 869.7633 987.1843 L 868.8838 990.0263 L 866.4083 990.3181 M 856.5738 986.9954 L 850.788 981.5136 L 855.1599 977.3283 L 860.4096 981.9616 L 858.2269 983.9831 L 855.9371 982.998 M 849.0815 975.2032 L 846.8118 967.5629 L 852.6906 966.1243 L 854.9204 972.7617 L 852.0193 973.421 L 850.5288 971.423 M 848.4892 961.2447 L 850.3437 953.4932 L 856.1542 955.1867 L 854.7665 962.0497 L 851.9245 961.1702 L 851.6327 958.6947 M 854.9554 948.8602 L 860.4372 943.0744 L 864.6225 947.4462 L 859.9892 952.696 L 857.9677 950.5133 L 858.9528 948.2235 M 866.7476 941.3679 L 874.3879 939.0982 L 875.8265 944.977 L 869.1891 947.2068 L 868.5298 944.3057 L 870.5278 942.8152 M 880.7061 940.7755 L 888.4577 942.6301 L 886.7641 948.4405 L 879.9011 947.0529 L 880.7806 944.2109 L 883.2561 943.919 M 893.0906 947.2418 L 898.8765 952.7236 L 894.5046 956.9089 L 889.2548 952.2756 L 891.4375 950.2541 L 893.7273 951.2392 M 900.5829 959.034 L 902.8526 966.6743 L 896.9738 968.1129 L 894.744 961.4755 L 897.6451 960.8162 L 899.1356 962.8142 M 901.1753 972.9924 L 899.3207 980.744 L 893.5103 979.0505 L 894.8979 972.1875 L 897.74 973.067 L 898.0318 975.5425 M 894.709 985.377 L 889.2272 991.1628 L 885.0419 986.791 L 889.6752 981.5412 L 891.6967 983.7239 L 890.7117 986.0137 M 882.9168 992.8693 L 875.2765 995.139 L 873.8379 989.2602 L 880.4753 987.0304 L 881.1346 989.9315 L 879.1367 991.422 "/>
<path transform="matrix(1,0,0,-1,-640.6026,1198.3015)" stroke-width="1.5" stroke-linecap="butt" stroke-miterlimit="10" stroke-linejoin="miter" fill="none" stroke="#333333" d="M 873.4828 985.699 L 872.6517 982.6261 L 878.594 980.5001 L 878.8578 983.4411 L 874.4182 985.1035 M 864.3734 982.535 L 865.19 979.4582 L 871.3993 980.5882 L 870.1572 983.2671 L 865.4813 982.487 M 858.0664 975.2402 L 860.312 972.9839 L 865.1244 977.0672 L 862.7093 978.7661 L 859.0499 975.7525 M 856.2518 965.7692 L 859.3247 964.938 L 861.4507 970.8804 L 858.5097 971.1441 L 856.8473 966.7046 M 859.4158 956.6598 L 862.4926 957.4764 L 861.3626 963.6857 L 858.6837 962.4436 L 859.4638 957.7676 M 866.7106 950.3528 L 868.9669 952.5984 L 864.8836 957.4108 L 863.1847 954.9956 L 866.1983 951.3363 M 876.1816 948.5382 L 877.0128 951.6111 L 871.0704 953.7371 L 870.8067 950.7961 L 875.2462 949.1337 M 885.291 951.7022 L 884.4744 954.779 L 878.2651 953.6489 L 879.5073 950.9701 L 884.1832 951.7502 M 891.598 958.997 L 889.3524 961.2532 L 884.54 957.17 L 886.9552 955.4711 L 890.6146 958.4847 M 893.4126 968.468 L 890.3397 969.2991 L 888.2137 963.3568 L 891.1548 963.093 L 892.8171 967.5326 M 890.2486 977.5774 L 887.1718 976.7608 L 888.3019 970.5515 L 890.9807 971.7936 L 890.2006 976.4695 M 882.9538 983.8844 L 880.6976 981.6388 L 884.7808 976.8264 L 886.4797 979.2416 L 883.4661 982.9009 M 873.4828 985.699 L 872.6517 982.6261 L 878.594 980.5001 L 878.8578 983.4411 L 874.4182 985.1035 "/>
<path transform="matrix(1,0,0,-1,-640.6026,1198.3015)" stroke-width="1.5" stroke-linecap="butt" stroke-miterlimit="10" stroke-linejoin="miter" fill="none" stroke="#333333" d="M 883.7235 975.4715 L 881.4363 974.6722 L 879.1755 977.434 L 880.1886 979.1226 M 878.3558 978.7981 L 876.7747 976.9623 L 873.4359 978.2236 L 873.469 980.1926 M 872.044 978.9951 L 871.5926 976.6147 L 868.0704 976.0377 L 867.1146 977.7594 M 866.4793 976.0099 L 867.2786 973.7227 L 864.5168 971.4618 L 862.8282 972.475 M 863.1527 970.6422 L 864.9885 969.0611 L 863.7272 965.7222 L 861.7582 965.7554 M 862.9557 964.3304 L 865.3361 963.879 L 865.9132 960.3568 L 864.1914 959.401 M 865.941 958.7657 L 868.2281 959.565 L 870.489 956.8032 L 869.4758 955.1146 M 871.3086 955.4391 L 872.8897 957.2749 L 876.2286 956.0136 L 876.1954 954.0446 M 877.6204 955.2421 L 878.0718 957.6225 L 881.594 958.1995 L 882.5498 956.4778 M 883.1851 958.2273 L 882.3858 960.5145 L 885.1476 962.7754 L 886.8362 961.7622 M 886.5117 963.595 L 884.6759 965.1761 L 885.9372 968.5149 L 887.9062 968.4818 M 886.7087 969.9068 L 884.3283 970.3582 L 883.7513 973.8804 L 885.473 974.8362 M 883.7235 975.4715 L 881.4363 974.6722 L 879.1755 977.434 L 880.1886 979.1226 "/>
<path transform="matrix(1,0,0,-1,-640.6026,1198.3015)" stroke-width="1.5" stroke-linecap="butt" stroke-miterlimit="10" stroke-linejoin="miter" fill="none" stroke="#333333" d="M 880.5357 972.9752 L 878.8265 975.0934 L 877.228 974.3223 L 878.5995 971.4179 L 876.8715 970.7988 L 876.4381 971.5605 M 876.8433 975.0423 L 874.304 976.0221 L 873.3051 974.555 L 875.9451 972.7255 L 874.7582 971.3253 L 874.002 971.7683 M 872.612 974.9863 L 869.923 974.5652 L 869.7915 972.7952 L 872.9925 972.5308 L 872.6647 970.7247 L 871.7883 970.7303 M 868.9756 972.8221 L 866.8574 971.1129 L 867.6285 969.5143 L 870.5329 970.8858 L 871.152 969.1578 L 870.3903 968.7244 M 866.9085 969.1297 L 865.9287 966.5903 L 867.3958 965.5915 L 869.2253 968.2315 L 870.6255 967.0446 L 870.1825 966.2883 M 866.9645 964.8984 L 867.3856 962.2093 L 869.1556 962.0779 L 869.42 965.2789 L 871.2261 964.9511 L 871.2206 964.0747 M 869.1287 961.262 L 870.8379 959.1438 L 872.4365 959.9149 L 871.065 962.8193 L 872.793 963.4384 L 873.2264 962.6767 M 872.8211 959.1949 L 875.3605 958.215 L 876.3593 959.6821 L 873.7193 961.5116 L 874.9063 962.9118 L 875.6625 962.4689 M 877.0524 959.2509 L 879.7415 959.672 L 879.8729 961.442 L 876.6719 961.7064 L 876.9997 963.5125 L 877.8761 963.5069 M 880.6888 961.4151 L 882.807 963.1243 L 882.0359 964.7229 L 879.1315 963.3513 L 878.5124 965.0793 L 879.2741 965.5127 M 882.7559 965.1075 L 883.7358 967.6468 L 882.2687 968.6457 L 880.4392 966.0057 L 879.039 967.1926 L 879.4819 967.9488 M 882.6999 969.3388 L 882.2788 972.0278 L 880.5088 972.1593 L 880.2444 968.9583 L 878.4383 969.2861 L 878.4439 970.1625 M 880.5357 972.9752 L 878.8265 975.0934 L 877.228 974.3223 L 878.5995 971.4179 L 876.8715 970.7988 L 876.4381 971.5605 "/>
</g>
</svg>
